<?xml version="1.0" encoding="utf-8"?>
<svg viewBox="72.189 -19.217 539.143 173.724" xmlns="http://www.w3.org/2000/svg">
  <g transform="matrix(1, 0, 0, 1, 0, 7)">
    <path fill="#1D5632" d="M145.09,38.053c12.479,0,22.098,10.548,22.098,22.095c0,11.473-9.473,22.097-22.098,22.097 c-12.316,0-21.943-10.392-21.943-21.787C123.146,47.14,134.004,38.053,145.09,38.053z M145.17,77.396 c8.164,0,16.631-6.468,16.631-17.479c0-11.088-9.393-17.018-16.631-17.018c-7.701,0-16.635,6.313-16.635,17.476 C128.535,70.158,136.471,77.396,145.17,77.396z"/>
    <path fill="#1D5632" d="M267.848,38.237h5.385V45.4h0.156c1.617-2.551,5.773-6.494,12.938-6.494c5.154,0,9.469,1.315,13.316,5.179 c3.156,3.093,5.238,7.956,5.238,14.911v23.26h-5.391v-23.26c0-5.484-1.695-9.347-4.006-11.588c-2.924-2.859-6.775-3.63-9.158-3.63 c-2.389,0-6.24,0.771-9.168,3.63c-2.309,2.241-4,6.104-3.926,11.588v23.26h-5.385V38.237z"/>
    <path fill="#4E9D2D" d="M312.16,39.521h9.395v3.775h0.15c1.928-2.772,3.848-5.235,9.166-5.235h0.846v9.932 C322.4,48.378,322.4,55.69,322.4,58.23v24.025h-10.24V39.521z"/>
    <path fill="#4E9D2D" d="M448.814,59.918c0-12.935,10.547-22.866,22.789-22.866c12.088,0,22.637,9.622,22.637,22.71 c0,14.016-10.781,22.867-22.637,22.867C458.898,82.629,448.814,72.159,448.814,59.918z M483.992,59.995 c0-7.776-6-13.554-12.389-13.554c-5.312,0-12.555,4.546-12.555,13.477c0,8.088,6.09,13.321,12.555,13.321 C479.066,73.239,483.992,66.771,483.992,59.995z"/>
    <path fill="#4E9D2D" d="M500.199,47.598h-5.984V38.51h5.984V24.271h10.24V38.51h6.16v9.088h-6.16v33.646h-10.24V47.598z"/>
    <path fill="#4E9D2D" d="M426.043,38.349c-5.213,0-9.924,2.27-13.324,5.927c-3.398-3.657-8.119-5.927-13.322-5.927 c-10.326,0-18.73,8.916-18.73,19.873v24.464h10.752V58.222c0-5.032,3.582-9.123,7.979-9.123c4.203,0,7.65,3.733,7.947,8.453 c-0.006,0.227-0.033,0.446-0.033,0.67v24.464h10.754v-0.06h0.059V58.222c0-0.224-0.023-0.443-0.029-0.67 c0.297-4.72,3.744-8.453,7.949-8.453c4.395,0,7.979,4.091,7.979,9.123v24.404h10.748V58.222 C444.77,47.265,436.371,38.349,426.043,38.349z"/>
    <rect x="171.701" y="39.091" fill="#1D5632" width="5.402" height="56.955"/>
    <path fill="#1D5632" d="M193.68,38.053c-11.088,0-21.945,9.052-21.979,22.335h5.393c0-0.006,0-0.006,0-0.006 c0-11.168,8.945-17.481,16.654-17.481c7.256,0,16.66,5.93,16.66,17.018c0,11.011-8.48,17.479-16.66,17.479 c-4.051,0-7.928-1.587-10.932-4.251v6.167c3.186,1.85,6.881,2.932,10.863,2.932c12.639,0,22.131-10.624,22.131-22.097 C215.811,48.601,206.168,38.053,193.68,38.053z"/>
    <path fill="#1D5632" d="M259.939,48.83c-3.002-5.233-9.547-10.702-18.787-10.777c-12.242,0.231-21.865,10.237-21.865,22.173 c0,12.471,10.166,22.019,21.943,22.019c9.699,0,17.785-6.388,20.711-14.782h-5.699c-1.922,5.234-7.391,9.781-15.09,9.935 c-8.236,0-15.938-7.006-16.322-15.246h0.006c-0.234-2.232-0.318-5.594,0.805-8.146h0.01c2.654-7.622,9.742-11.104,15.58-11.104 c6.701,0,14.783,4.466,16.479,14.402h-24.168v4.848h29.635C263.402,58.073,262.789,53.373,259.939,48.83z"/>
    <path fill="#4E9D2D" d="M376.396,59.304c0-10.779-8.549-22.481-22.1-22.481c-13.172,0-22.482,11.087-22.482,23.173 c0,12.471,9.852,22.634,22.559,22.634c10.008,0,18.17-7.157,20.635-14.855h-10.779c-1.926,3.538-5.314,5.466-9.855,5.466 c-7.08,0-11.047-5.616-11.715-8.492c-0.619-1.886-1.23-4.997-0.352-8.521h-0.023c0.051-0.205,0.117-0.395,0.17-0.59 c0.021-0.064,0.037-0.123,0.057-0.189c2.145-7.278,8.221-9.232,11.863-9.232c5.08,0,10.398,3.154,11.545,10.012h-17.971v8.235 h27.826C376.086,63.074,376.396,61.307,376.396,59.304z"/>
    <path fill="#4E9D2D" d="M561.125,59.304c0-10.779-8.541-22.481-22.09-22.481c-13.172,0-22.49,11.087-22.49,23.173 c0,12.471,9.861,22.634,22.566,22.634c10.008,0,18.17-7.157,20.635-14.855h-10.781c-1.924,3.538-5.314,5.466-9.854,5.466 c-7.078,0-11.047-5.616-11.717-8.492c-0.615-1.886-1.23-4.997-0.354-8.521h-0.018c0.047-0.205,0.115-0.395,0.168-0.59 c0.021-0.064,0.037-0.123,0.057-0.189c2.145-7.278,8.221-9.232,11.863-9.232c5.08,0,10.393,3.154,11.551,10.012h-18.629v8.235 h28.479C560.82,63.074,561.125,61.307,561.125,59.304z"/>
  </g>
</svg>