<?xml version="1.0" encoding="UTF-8"?>
<svg id="Layer_1" data-name="Layer 1" xmlns="http://www.w3.org/2000/svg" viewBox="0 0 162.89 50">
  <defs>
    <style>
      .cls-1 {
        fill: #fff;
      }

      .cls-2 {
        fill: #662d91;
      }

      .cls-3 {
        fill: #2e3192;
      }

      .cls-4 {
        fill: #1b1464;
      }

      .cls-5 {
        fill: #93278f;
      }
    </style>
  </defs>
  <path class="cls-3" d="M148.72,42.33c3.61-3.67,5.84-8.7,5.84-14.25,0-11.23-9.1-20.33-20.33-20.33s-20.33,9.1-20.33,20.33c0,5.55,2.23,10.58,5.84,14.25h28.99Z"/>
  <path class="cls-2" d="M129.8,42.33h8.84c6.08-1.88,10.5-7.55,10.5-14.25,0-8.24-6.68-14.92-14.92-14.92s-14.92,6.68-14.92,14.92c0,6.7,4.42,12.37,10.5,14.25Z"/>
  <g>
    <path class="cls-5" d="M32.17,24.11h-2.77l-1.52-2.79c-.25-.45-.49-.79-.73-1.02s-.53-.36-.84-.38h-.72v4.2h-2.44V12.9h3.95c1.34,0,2.35,.26,3.02,.79s1.02,1.32,1.02,2.38c0,.75-.22,1.39-.65,1.93s-1.03,.94-1.79,1.2v.03c.32,.1,.63,.32,.91,.64s.52,.66,.72,1.02l1.84,3.23Zm-6.59-9.36v3.3h1.14c.55,0,1-.17,1.33-.5s.5-.75,.5-1.24-.15-.91-.45-1.17-.75-.39-1.34-.39h-1.19Z"/>
    <path class="cls-5" d="M37.21,24.31c-1.35,0-2.41-.39-3.19-1.16-.78-.77-1.16-1.81-1.16-3.11,0-1.36,.41-2.42,1.21-3.19,.8-.77,1.89-1.15,3.26-1.15s2.4,.38,3.16,1.14,1.15,1.78,1.15,3.05c0,1.35-.4,2.42-1.19,3.21-.79,.79-1.88,1.19-3.25,1.19Zm.09-1.84c.63,0,1.11-.21,1.43-.63,.32-.42,.48-1.05,.48-1.88s-.16-1.39-.48-1.79-.8-.61-1.44-.61-1.11,.22-1.46,.65c-.35,.43-.52,1.04-.52,1.81s.17,1.42,.5,1.84,.83,.62,1.5,.62Z"/>
    <path class="cls-5" d="M48.84,23.98c-.25,.11-.53,.19-.83,.25s-.62,.08-.93,.08c-.88,0-1.54-.21-1.98-.64s-.67-1.06-.67-1.91v-4.08h-1.34v-1.77h1.34v-1.84l2.38-.69v2.53h1.87v1.77h-1.87v3.91c0,.33,.07,.58,.2,.73s.33,.23,.6,.23c.14,0,.27-.02,.4-.05s.25-.08,.36-.14l.48,1.62Z"/>
    <path class="cls-5" d="M55.68,23.98c-.25,.11-.53,.19-.83,.25s-.62,.08-.93,.08c-.88,0-1.54-.21-1.98-.64s-.67-1.06-.67-1.91v-4.08h-1.34v-1.77h1.34v-1.84l2.38-.69v2.53h1.87v1.77h-1.87v3.91c0,.33,.07,.58,.2,.73s.33,.23,.6,.23c.14,0,.27-.02,.4-.05s.25-.08,.36-.14l.48,1.62Z"/>
    <path class="cls-5" d="M64.79,20.68h-5.4c.04,.63,.25,1.1,.62,1.42,.37,.32,.88,.47,1.53,.47,.24,0,.57-.07,.98-.21s.82-.36,1.21-.65l1.04,1.39c-.56,.42-1.12,.72-1.7,.92s-1.22,.29-1.91,.29c-1.31,0-2.32-.37-3.05-1.1-.72-.73-1.09-1.76-1.09-3.08s.38-2.38,1.15-3.2,1.73-1.23,2.91-1.23,2.04,.34,2.71,1.03c.67,.69,1,1.68,1,2.97v.97Zm-2.22-1.5c0-.65-.13-1.11-.38-1.4-.26-.29-.63-.43-1.12-.43-.43,0-.8,.17-1.11,.5-.31,.33-.5,.78-.57,1.34h3.19Z"/>
    <path class="cls-5" d="M71.89,17.9c-.1-.03-.21-.05-.32-.06s-.23-.02-.36-.02c-.65,0-1.14,.21-1.47,.62s-.5,.99-.5,1.72v3.94h-2.39V15.91h2.39v1.53h.03c.19-.56,.47-.98,.84-1.25s.81-.42,1.33-.42c.12,0,.25,0,.36,.02s.24,.04,.36,.06l-.27,2.05Z"/>
    <path class="cls-5" d="M79.32,22.95c-.29,.45-.65,.79-1.08,1.02-.43,.23-.92,.34-1.49,.34-1.02,0-1.84-.36-2.47-1.09s-.94-1.74-.94-3.03c0-1.36,.34-2.45,1.04-3.26,.69-.82,1.59-1.22,2.71-1.22,.53,0,.98,.1,1.35,.29s.67,.48,.88,.88h.03v-4.61h2.39v11.84h-2.39v-1.16h-.03Zm-3.55-2.84c0,.75,.16,1.34,.48,1.74,.32,.41,.76,.61,1.32,.61s.98-.21,1.32-.64,.5-.98,.5-1.68v-.68c0-.55-.16-1.01-.48-1.38-.32-.36-.74-.55-1.26-.55-.59,0-1.05,.23-1.38,.68-.33,.46-.5,1.08-.5,1.88Z"/>
    <path class="cls-5" d="M91.13,24.11h-2.27v-1.19h-.03c-.27,.46-.61,.8-1.02,1.04s-.88,.35-1.4,.35c-.73,0-1.34-.22-1.84-.66s-.75-1.04-.75-1.81,.25-1.39,.75-1.86,1.27-.78,2.32-.92l2.01-.27v-.16c0-.42-.13-.74-.39-.95s-.62-.32-1.08-.32c-.34,0-.72,.06-1.12,.18s-.82,.3-1.23,.56l-.84-1.41c.54-.33,1.08-.57,1.63-.73s1.14-.24,1.79-.24c1.19,0,2.07,.29,2.64,.86s.86,1.43,.86,2.59v4.95Zm-2.25-3.34v-.58l-1.55,.2c-.44,.06-.76,.18-.98,.38s-.32,.46-.32,.79c0,.3,.1,.55,.31,.74s.49,.29,.84,.29c.5,0,.91-.17,1.22-.51s.47-.78,.47-1.31Z"/>
    <path class="cls-5" d="M106.53,24.11h-2.38v-4.68c0-.64-.11-1.11-.34-1.41s-.57-.46-1.04-.46c-.43,0-.79,.19-1.06,.56s-.41,.84-.41,1.4v4.59h-2.38v-4.74c0-.61-.11-1.06-.34-1.36s-.57-.45-1.02-.45-.82,.18-1.09,.54-.41,.84-.41,1.45v4.57h-2.39V15.91h2.39v1.28h.03c.27-.45,.63-.81,1.1-1.08s.98-.41,1.54-.41,1.07,.13,1.46,.39,.7,.65,.91,1.16c.31-.52,.7-.91,1.16-1.16s.99-.38,1.59-.38c.89,0,1.56,.27,2.01,.82s.67,1.38,.67,2.48v5.09Z"/>
    <path class="cls-4" d="M22.27,37.35l1.01-1.91c.56,.34,1.05,.57,1.48,.69s.86,.18,1.33,.18c.6,0,1.05-.12,1.35-.36s.45-.57,.45-.99c0-.39-.12-.69-.36-.91s-.67-.4-1.3-.55c-1.24-.29-2.14-.7-2.7-1.22s-.84-1.25-.84-2.18,.36-1.74,1.09-2.4,1.75-.99,3.06-.99c.55,0,1.08,.06,1.61,.19s1.04,.31,1.52,.55l-.93,1.92c-.43-.24-.83-.41-1.21-.52s-.74-.16-1.07-.16c-.52,0-.92,.1-1.21,.31s-.43,.5-.43,.89c0,.35,.13,.62,.39,.8s.74,.36,1.42,.53c1.2,.28,2.07,.69,2.61,1.24s.8,1.31,.8,2.29c0,1.05-.37,1.91-1.11,2.56s-1.81,.98-3.21,.98c-.63,0-1.28-.08-1.94-.25s-1.26-.4-1.79-.7Z"/>
    <path class="cls-4" d="M45.3,38.11h-2.38v-4.68c0-.64-.11-1.11-.34-1.41s-.57-.46-1.04-.46c-.43,0-.79,.19-1.06,.56-.28,.38-.41,.84-.41,1.4v4.59h-2.38v-4.74c0-.61-.12-1.06-.34-1.36-.23-.3-.57-.45-1.02-.45s-.82,.18-1.09,.54c-.27,.36-.41,.84-.41,1.45v4.57h-2.39v-8.2h2.39v1.28h.03c.27-.45,.63-.81,1.1-1.08,.47-.27,.98-.41,1.54-.41s1.06,.13,1.46,.39c.4,.26,.7,.65,.91,1.16,.31-.52,.7-.91,1.16-1.16,.46-.25,.99-.38,1.59-.38,.89,0,1.56,.27,2.01,.82,.45,.55,.67,1.38,.67,2.48v5.09Z"/>
    <path class="cls-4" d="M54.57,38.11h-2.27v-1.19h-.03c-.27,.46-.61,.8-1.02,1.04s-.88,.35-1.4,.35c-.73,0-1.34-.22-1.84-.66s-.75-1.04-.75-1.81,.25-1.39,.75-1.86,1.27-.78,2.32-.92l2.01-.27v-.16c0-.42-.13-.74-.39-.95s-.62-.32-1.08-.32c-.34,0-.72,.06-1.12,.18s-.82,.3-1.23,.56l-.84-1.41c.54-.33,1.08-.57,1.63-.73s1.14-.24,1.79-.24c1.19,0,2.07,.29,2.64,.86s.86,1.43,.86,2.59v4.95Zm-2.25-3.34v-.58l-1.55,.2c-.44,.06-.76,.18-.98,.38s-.32,.46-.32,.79c0,.3,.1,.55,.31,.74s.49,.29,.84,.29c.5,0,.91-.17,1.22-.51s.47-.78,.47-1.31Z"/>
    <path class="cls-4" d="M62.15,31.9c-.1-.03-.21-.05-.32-.06s-.23-.02-.36-.02c-.65,0-1.14,.21-1.47,.62s-.5,.99-.5,1.72v3.94h-2.39v-8.2h2.39v1.53h.03c.19-.56,.47-.98,.84-1.25s.81-.42,1.33-.42c.12,0,.25,0,.36,.02s.24,.04,.36,.06l-.27,2.05Z"/>
    <path class="cls-4" d="M69.1,37.98c-.25,.11-.53,.19-.83,.25s-.62,.08-.93,.08c-.88,0-1.54-.21-1.98-.64s-.67-1.06-.67-1.91v-4.08h-1.34v-1.77h1.34v-1.84l2.38-.69v2.53h1.87v1.77h-1.87v3.91c0,.33,.06,.58,.2,.73,.13,.15,.33,.23,.6,.23,.14,0,.27-.02,.4-.05s.24-.08,.36-.14l.48,1.62Z"/>
    <path class="cls-4" d="M84.4,37.52c-.59,.28-1.16,.48-1.72,.6-.56,.12-1.16,.18-1.8,.18-1.75,0-3.12-.49-4.11-1.47-1-.98-1.5-2.38-1.5-4.19,0-1.71,.54-3.12,1.64-4.25,1.09-1.12,2.53-1.68,4.31-1.68,.6,0,1.15,.05,1.63,.14,.48,.09,.97,.24,1.47,.43l-.75,1.98c-.38-.16-.74-.27-1.11-.34-.36-.07-.75-.1-1.17-.1-.94,0-1.75,.33-2.43,.98s-1.02,1.55-1.02,2.67,.3,2.05,.89,2.7c.6,.65,1.41,.98,2.45,.98,.3,0,.65-.05,1.06-.14,.41-.09,.83-.25,1.25-.46l.91,1.96Z"/>
    <path class="cls-4" d="M87.57,28.81c-.42,0-.76-.13-1.02-.38s-.39-.57-.39-.94,.13-.71,.39-.95,.6-.37,1.02-.37,.76,.12,1.02,.37,.39,.56,.39,.95-.13,.7-.39,.95-.6,.37-1.02,.37Zm1.17,9.3h-2.38v-8.2h2.38v8.2Z"/>
    <path class="cls-4" d="M96.53,37.98c-.25,.11-.53,.19-.83,.25s-.62,.08-.93,.08c-.88,0-1.54-.21-1.98-.64s-.67-1.06-.67-1.91v-4.08h-1.34v-1.77h1.34v-1.84l2.38-.69v2.53h1.87v1.77h-1.87v3.91c0,.33,.07,.58,.2,.73s.33,.23,.6,.23c.14,0,.27-.02,.4-.05s.25-.08,.36-.14l.48,1.62Z"/>
    <path class="cls-4" d="M106.06,29.91l-3.68,9.7c-.28,.74-.7,1.31-1.25,1.72s-1.22,.61-2,.61c-.25,0-.49-.01-.73-.04-.24-.03-.46-.07-.68-.13l.41-1.78c.12,.05,.25,.09,.37,.11,.12,.02,.26,.04,.4,.04,.27,0,.5-.07,.7-.2,.2-.13,.36-.34,.48-.63l.52-1.22-3.32-8.18h2.64l1.61,5.14c.05,.14,.09,.3,.12,.47,.04,.17,.07,.36,.09,.57h.03c.03-.15,.06-.31,.11-.48,.04-.17,.09-.35,.15-.55l1.64-5.16h2.37Z"/>
  </g>
  <circle class="cls-5" cx="134.22" cy="28.08" r="9.5"/>
  <path class="cls-1" d="M146.31,29.18v13.57h-24.46V23.7h8.15v-2.68l4.08-4.08,4.08,4.08v8.15h8.15Zm-19.05-2.74h-2.68v2.74h2.68v-2.74Zm0,5.42h-2.68v2.74h2.68v-2.74Zm0,5.48h-2.68v2.68h2.68v-2.68Zm8.15-16.31h-2.68v2.68h2.68v-2.68Zm0,5.42h-2.68v2.74h2.68v-2.74Zm0,5.42h-2.68v2.74h2.68v-2.74Zm0,5.48h-2.68v2.68h2.68v-2.68Zm8.15-5.48h-2.68v2.74h2.68v-2.74Zm0,5.48h-2.68v2.68h2.68v-2.68Z"/>
</svg>