<svg xmlns="http://www.w3.org/2000/svg" width="256" height="256" viewBox="0 0 256 256"><circle cx="128" cy="128" r="122.01" fill="#27844f"/><path d="M172.23,79.19h26.09a7.92,7.92,0,0,1,7.8,7.8v15.6a7.92,7.92,0,0,1-7.8,7.81H180L164.43,126V87a7.91,7.91,0,0,1,7.8-7.8Z" fill="#66af50"/><text transform="translate(45.41 194.02)" font-size="54.92" fill="#66af50" font-family="MaterialDesignIconsDesktop, Material Design Icons Desktop">󰍎</text><path d="M150.9,82.24a9.86,9.86,0,0,0-7.2-3H107.13a9.84,9.84,0,0,0-7.19,3,10.12,10.12,0,0,0-3,7.43v72.66a10.12,10.12,0,0,0,3,7.43,9.8,9.8,0,0,0,7.19,3.05H143.7a9.83,9.83,0,0,0,7.2-3.05,10.11,10.11,0,0,0,3-7.43V89.67A10.11,10.11,0,0,0,150.9,82.24Zm-7.2,69.85H107.13V99.91H143.7Z" fill="#fff"/></svg>