<?xml version="1.0" encoding="UTF-8"?>
<svg id="Layer_1" data-name="Layer 1" xmlns="http://www.w3.org/2000/svg" viewBox="0 0 40 40">
  <defs>
    <style>
      .cls-1 {
        fill: #fff;
      }

      .cls-2 {
        fill: #662d91;
      }

      .cls-3 {
        fill: #2e3192;
      }

      .cls-4 {
        fill: #93278f;
      }
    </style>
  </defs>
  <path class="cls-3" d="M34.14,36.66c3.52-3.58,5.7-8.48,5.7-13.9,0-10.95-8.88-19.83-19.83-19.83S.17,11.81,.17,22.76c0,5.42,2.18,10.32,5.7,13.9h28.28Z"/>
  <path class="cls-2" d="M15.69,36.66h8.62c5.93-1.84,10.24-7.37,10.24-13.9,0-8.04-6.51-14.55-14.55-14.55S5.45,14.73,5.45,22.76c0,6.53,4.31,12.06,10.24,13.9Z"/>
  <circle class="cls-4" cx="20" cy="22.76" r="9.27"/>
  <path class="cls-1" d="M31.79,23.83v13.24H7.93V18.49h7.95v-2.61l3.98-3.98,3.98,3.98v7.95h7.95Zm-18.58-2.67h-2.61v2.67h2.61v-2.67Zm0,5.28h-2.61v2.67h2.61v-2.67Zm0,5.34h-2.61v2.61h2.61v-2.61Zm7.95-15.91h-2.61v2.61h2.61v-2.61Zm0,5.28h-2.61v2.67h2.61v-2.67Zm0,5.28h-2.61v2.67h2.61v-2.67Zm0,5.34h-2.61v2.61h2.61v-2.61Zm7.95-5.34h-2.61v2.67h2.61v-2.67Zm0,5.34h-2.61v2.61h2.61v-2.61Z"/>
</svg>