<?xml version="1.0" encoding="UTF-8"?>
<svg id="Layer_1" data-name="Layer 1" xmlns="http://www.w3.org/2000/svg" viewBox="0 0 163.56 50">
  <defs>
    <style>
      .cls-1 {
        fill: #1a5632;
      }

      .cls-2 {
        fill: #4c9c2e;
      }

      .cls-3 {
        fill: #29abe2;
      }

      .cls-4 {
        fill: #c2d500;
      }
    </style>
  </defs>
  <g>
    <path class="cls-2" d="M68.4,22.04c-.53,.32-1.13,.58-1.81,.76s-1.43,.28-2.25,.28c-1.77,0-3.17-.47-4.22-1.41-1.05-.94-1.57-2.34-1.57-4.21,0-1.71,.54-3.14,1.61-4.27,1.07-1.13,2.55-1.7,4.43-1.7,.7,0,1.34,.06,1.94,.18,.6,.12,1.21,.32,1.83,.59l-.79,1.89c-.5-.22-.98-.38-1.45-.47-.46-.1-.98-.14-1.54-.14-1.06,0-1.91,.32-2.53,.96s-.94,1.59-.94,2.84,.31,2.19,.92,2.79c.61,.6,1.42,.9,2.42,.9,.31,0,.59-.02,.84-.07s.47-.12,.66-.2v-2.26h-2.26v-1.96h4.7v5.5Z"/>
    <path class="cls-2" d="M75.95,16.68c-.1-.03-.21-.05-.32-.06s-.23-.02-.36-.02c-.65,0-1.14,.21-1.47,.62-.33,.41-.5,.99-.5,1.72v3.94h-2.39V14.69h2.39v1.53h.03c.19-.56,.47-.98,.84-1.25,.36-.28,.81-.42,1.33-.42,.12,0,.25,0,.36,.02s.24,.04,.36,.06l-.27,2.05Z"/>
    <path class="cls-2" d="M85.17,19.46h-5.4c.04,.63,.25,1.1,.62,1.42,.37,.32,.88,.47,1.53,.47,.24,0,.57-.07,.98-.21s.82-.36,1.21-.65l1.04,1.39c-.56,.42-1.12,.72-1.7,.92s-1.22,.29-1.91,.29c-1.31,0-2.32-.37-3.05-1.1-.72-.73-1.09-1.76-1.09-3.08s.38-2.38,1.15-3.2,1.73-1.23,2.91-1.23,2.04,.34,2.71,1.03c.67,.69,1,1.68,1,2.97v.97Zm-2.22-1.5c0-.65-.13-1.11-.38-1.4-.26-.29-.63-.43-1.12-.43-.43,0-.8,.17-1.11,.5-.31,.33-.5,.78-.57,1.34h3.19Z"/>
    <path class="cls-2" d="M94.52,19.46h-5.4c.04,.63,.25,1.1,.62,1.42,.37,.32,.88,.47,1.53,.47,.24,0,.57-.07,.98-.21s.82-.36,1.21-.65l1.04,1.39c-.56,.42-1.12,.72-1.7,.92s-1.22,.29-1.91,.29c-1.31,0-2.32-.37-3.05-1.1-.72-.73-1.09-1.76-1.09-3.08s.38-2.38,1.15-3.2,1.73-1.23,2.91-1.23,2.04,.34,2.71,1.03c.67,.69,1,1.68,1,2.97v.97Zm-2.22-1.5c0-.65-.13-1.11-.38-1.4-.26-.29-.63-.43-1.12-.43-.43,0-.8,.17-1.11,.5-.31,.33-.5,.78-.57,1.34h3.19Z"/>
    <path class="cls-2" d="M104.37,22.89h-2.38v-4.57c0-.66-.12-1.16-.36-1.49-.24-.33-.59-.5-1.07-.5s-.84,.18-1.14,.53c-.3,.35-.45,.8-.45,1.35v4.67h-2.39V14.69h2.39v1.3h.03c.3-.5,.67-.88,1.11-1.13,.44-.25,.95-.38,1.53-.38,.91,0,1.59,.28,2.04,.85,.46,.57,.68,1.41,.68,2.53v5.02Z"/>
    <path class="cls-2" d="M116.75,22.89h-2.45v-4.6h-4.72v4.6h-2.44V11.68h2.44v4.5h4.72v-4.5h2.45v11.2Z"/>
    <path class="cls-2" d="M123.52,23.09c-1.35,0-2.41-.39-3.19-1.16-.78-.77-1.16-1.81-1.16-3.11,0-1.36,.41-2.42,1.21-3.19,.8-.77,1.89-1.15,3.26-1.15s2.4,.38,3.16,1.14,1.15,1.78,1.15,3.05c0,1.35-.4,2.42-1.19,3.21-.79,.79-1.88,1.19-3.25,1.19Zm.09-1.84c.64,0,1.11-.21,1.43-.63,.32-.42,.48-1.05,.48-1.88s-.16-1.39-.48-1.79-.8-.61-1.44-.61-1.11,.22-1.46,.65c-.35,.43-.52,1.04-.52,1.81s.17,1.42,.5,1.84,.83,.62,1.5,.62Z"/>
    <path class="cls-2" d="M137.81,22.89h-2.38v-1.26h-.04c-.31,.48-.67,.85-1.09,1.09-.42,.25-.89,.37-1.43,.37-.95,0-1.67-.29-2.14-.86-.47-.58-.71-1.44-.71-2.59v-4.95h2.38v4.72c0,.61,.12,1.07,.36,1.38,.24,.31,.6,.46,1.09,.46s.86-.17,1.15-.5c.29-.34,.43-.79,.43-1.36v-4.69h2.38v8.2Z"/>
    <path class="cls-2" d="M139.7,22.2l.99-1.6c.28,.21,.61,.39,.98,.54,.37,.15,.79,.22,1.25,.22,.35,0,.63-.06,.86-.19,.22-.13,.33-.32,.33-.58,0-.21-.09-.37-.26-.5s-.49-.24-.95-.34c-1.02-.22-1.75-.52-2.19-.92-.44-.39-.66-.94-.66-1.64,0-.82,.33-1.48,.98-1.97,.65-.49,1.46-.73,2.41-.73,.49,0,.95,.06,1.39,.19,.44,.13,.85,.32,1.24,.57l-.9,1.55c-.33-.21-.64-.36-.93-.46s-.59-.14-.89-.14c-.35,0-.64,.07-.85,.2-.21,.14-.32,.31-.32,.52,0,.23,.1,.41,.29,.52s.57,.23,1.12,.34c.94,.2,1.62,.5,2.04,.9s.62,.95,.62,1.65c0,.83-.31,1.49-.94,2s-1.45,.75-2.48,.75c-.57,0-1.11-.07-1.62-.21-.51-.14-1.02-.37-1.52-.67Z"/>
    <path class="cls-2" d="M155.49,19.46h-5.4c.04,.63,.25,1.1,.62,1.42,.37,.32,.88,.47,1.53,.47,.24,0,.57-.07,.98-.21s.82-.36,1.21-.65l1.04,1.39c-.56,.42-1.12,.72-1.7,.92s-1.22,.29-1.91,.29c-1.31,0-2.32-.37-3.05-1.1-.72-.73-1.09-1.76-1.09-3.08s.38-2.38,1.15-3.2,1.73-1.23,2.91-1.23,2.04,.34,2.71,1.03c.67,.69,1,1.68,1,2.97v.97Zm-2.22-1.5c0-.65-.13-1.11-.38-1.4-.26-.29-.63-.43-1.12-.43-.43,0-.8,.17-1.11,.5-.31,.33-.5,.78-.57,1.34h3.19Z"/>
    <path class="cls-3" d="M58.38,37.13l1.01-1.91c.56,.34,1.05,.57,1.48,.69s.86,.18,1.33,.18c.6,0,1.05-.12,1.35-.36,.3-.24,.45-.57,.45-.99,0-.39-.12-.69-.36-.91-.24-.22-.67-.4-1.3-.55-1.24-.29-2.14-.7-2.7-1.22s-.84-1.25-.84-2.18,.36-1.74,1.09-2.4,1.75-.99,3.06-.99c.55,0,1.08,.06,1.61,.19,.53,.12,1.04,.31,1.52,.55l-.93,1.92c-.43-.24-.83-.41-1.21-.52s-.74-.16-1.07-.16c-.52,0-.92,.1-1.21,.31s-.43,.5-.43,.89c0,.35,.13,.62,.39,.8,.26,.19,.74,.36,1.42,.53,1.2,.28,2.07,.69,2.61,1.24,.54,.54,.8,1.31,.8,2.29,0,1.05-.37,1.91-1.11,2.56-.74,.65-1.81,.98-3.21,.98-.63,0-1.28-.08-1.94-.25s-1.26-.4-1.79-.7Z"/>
    <path class="cls-3" d="M75.79,29.69l-3.68,9.7c-.28,.74-.7,1.31-1.25,1.72s-1.22,.61-2,.61c-.25,0-.49-.01-.73-.04-.24-.03-.46-.07-.68-.13l.41-1.78c.12,.05,.25,.09,.37,.11,.12,.02,.26,.04,.4,.04,.27,0,.5-.07,.7-.2,.2-.13,.36-.34,.48-.63l.52-1.22-3.32-8.18h2.64l1.61,5.14c.05,.14,.09,.3,.12,.47,.04,.17,.07,.36,.09,.57h.03c.03-.15,.06-.31,.11-.48,.04-.17,.09-.35,.15-.55l1.64-5.16h2.37Z"/>
    <path class="cls-3" d="M76.59,37.2l.99-1.6c.28,.21,.61,.39,.98,.54,.37,.15,.79,.22,1.25,.22,.35,0,.63-.06,.86-.19,.22-.13,.33-.32,.33-.58,0-.21-.09-.37-.26-.5s-.49-.24-.95-.34c-1.02-.22-1.75-.52-2.19-.92-.44-.39-.66-.94-.66-1.64,0-.82,.33-1.48,.98-1.97,.65-.49,1.46-.73,2.41-.73,.49,0,.95,.06,1.39,.19,.44,.13,.85,.32,1.24,.57l-.9,1.55c-.33-.21-.64-.36-.93-.46s-.59-.14-.89-.14c-.35,0-.64,.07-.85,.2-.21,.14-.32,.31-.32,.52,0,.23,.1,.41,.29,.52s.57,.23,1.12,.34c.94,.2,1.62,.5,2.04,.9s.62,.95,.62,1.65c0,.83-.31,1.49-.94,2s-1.45,.75-2.48,.75c-.57,0-1.11-.07-1.62-.21-.51-.14-1.02-.37-1.52-.67Z"/>
    <path class="cls-3" d="M90.11,37.75c-.25,.11-.53,.19-.83,.25s-.62,.08-.93,.08c-.88,0-1.54-.21-1.98-.64s-.67-1.06-.67-1.91v-4.08h-1.34v-1.77h1.34v-1.84l2.38-.69v2.53h1.87v1.77h-1.87v3.91c0,.33,.06,.58,.2,.73,.13,.15,.33,.23,.6,.23,.14,0,.27-.02,.4-.05s.24-.08,.36-.14l.48,1.62Z"/>
    <path class="cls-3" d="M99.22,34.46h-5.4c.04,.63,.25,1.1,.62,1.42,.37,.32,.88,.47,1.53,.47,.24,0,.57-.07,.98-.21s.82-.36,1.21-.65l1.04,1.39c-.56,.42-1.12,.72-1.7,.92s-1.22,.29-1.91,.29c-1.31,0-2.32-.37-3.05-1.1-.72-.73-1.09-1.76-1.09-3.08s.38-2.38,1.15-3.2,1.73-1.23,2.91-1.23,2.04,.34,2.71,1.03c.67,.69,1,1.68,1,2.97v.97Zm-2.22-1.5c0-.65-.13-1.11-.38-1.4-.26-.29-.63-.43-1.12-.43-.43,0-.8,.17-1.11,.5-.31,.33-.5,.78-.57,1.34h3.19Z"/>
    <path class="cls-3" d="M114.13,37.89h-2.38v-4.68c0-.64-.11-1.11-.34-1.41s-.57-.46-1.04-.46c-.43,0-.79,.19-1.06,.56-.28,.38-.41,.84-.41,1.4v4.59h-2.38v-4.74c0-.61-.11-1.06-.34-1.36-.23-.3-.57-.45-1.02-.45s-.82,.18-1.09,.54c-.27,.36-.41,.84-.41,1.45v4.57h-2.39v-8.2h2.39v1.28h.03c.27-.45,.63-.81,1.1-1.08,.47-.27,.98-.41,1.54-.41s1.06,.13,1.46,.39c.4,.26,.7,.65,.91,1.16,.31-.52,.7-.91,1.16-1.16,.46-.25,.99-.38,1.59-.38,.89,0,1.56,.27,2.01,.82,.45,.55,.67,1.38,.67,2.48v5.09Z"/>
    <path class="cls-3" d="M115.9,37.2l.99-1.6c.28,.21,.61,.39,.98,.54,.37,.15,.79,.22,1.25,.22,.35,0,.63-.06,.86-.19,.22-.13,.33-.32,.33-.58,0-.21-.09-.37-.26-.5s-.49-.24-.95-.34c-1.02-.22-1.75-.52-2.19-.92-.44-.39-.66-.94-.66-1.64,0-.82,.33-1.48,.98-1.97,.65-.49,1.46-.73,2.41-.73,.49,0,.95,.06,1.39,.19,.44,.13,.85,.32,1.24,.57l-.9,1.55c-.33-.21-.64-.36-.93-.46s-.59-.14-.89-.14c-.35,0-.64,.07-.85,.2-.21,.14-.32,.31-.32,.52,0,.23,.1,.41,.29,.52s.57,.23,1.12,.34c.94,.2,1.62,.5,2.04,.9s.62,.95,.62,1.65c0,.83-.31,1.49-.94,2s-1.45,.75-2.48,.75c-.57,0-1.11-.07-1.62-.21-.51-.14-1.02-.37-1.52-.67Z"/>
  </g>
  <path class="cls-4" d="M-8.71-32.53C4.7-18.61,4.3,3.62-9.62,17.04l-5.09-5.29C-3.71,1.15-3.39-16.43-13.99-27.43c-10.6-11-28.18-11.33-39.19-.72-11,10.6-11.33,28.18-.72,39.18l-5.28,5.09c-13.41-13.92-13-36.15,.91-49.56,13.92-13.41,36.15-13,49.56,.92h0Z"/>
  <g>
    <path class="cls-2" d="M47.68,18.95c2.46,2.56,3.77,5.93,3.7,9.48-.07,3.55-1.52,6.86-4.09,9.32-2.56,2.46-5.93,3.77-9.48,3.7-3.55-.07-6.86-1.52-9.32-4.09-5.08-5.29-4.91-13.72,.38-18.8l2.6,2.71c-3.79,3.64-3.92,9.69-.27,13.49,1.77,1.84,4.14,2.88,6.69,2.93,2.55,.05,4.96-.89,6.8-2.66,1.84-1.77,2.88-4.14,2.93-6.69,.05-2.55-.89-4.96-2.66-6.8l2.71-2.6h0Z"/>
    <path class="cls-1" d="M32.14,34.44c-.11-.1-.21-.2-.31-.31-1.58-1.67-2.42-3.86-2.36-6.16,.06-2.3,1.01-4.44,2.69-6.03l2.58,2.73c-.94,.89-1.48,2.1-1.52,3.4-.04,1.3,.44,2.53,1.33,3.48,.89,.94,2.1,1.48,3.4,1.52,1.3,.04,2.53-.44,3.48-1.33,1.95-1.84,2.03-4.93,.18-6.88l2.73-2.58c3.27,3.45,3.12,8.92-.33,12.19-1.67,1.58-3.86,2.42-6.16,2.36-2.16-.06-4.17-.9-5.72-2.38h0Z"/>
  </g>
  <path class="cls-3" d="M38.05,21.75c-.84,0-1.61-.21-2.32-.63-.71-.42-1.27-.98-1.67-1.69-.41-.71-.61-1.47-.61-2.29,0-.72,.24-1.58,.72-2.59,.38-.82,.91-1.72,1.58-2.7,.48-.7,1.01-1.4,1.58-2.12l.72-.86,.72,.86c.58,.72,1.1,1.43,1.58,2.12,.67,.98,1.2,1.88,1.58,2.7,.48,1.01,.72,1.87,.72,2.59,0,.82-.2,1.58-.61,2.29-.41,.71-.97,1.27-1.67,1.69-.71,.42-1.48,.63-2.32,.63Z"/>
</svg>