<?xml version="1.0" encoding="UTF-8"?>
<svg id="Layer_1" data-name="Layer 1" xmlns="http://www.w3.org/2000/svg" viewBox="0 0 40 40">
  <defs>
    <style>
      .cls-1 {
        fill: #1a5632;
      }

      .cls-2 {
        fill: #4c9c2e;
      }

      .cls-3 {
        fill: #29abe2;
      }
    </style>
  </defs>
  <g>
    <path class="cls-2" d="M31.57,12.67c2.97,3.09,4.56,7.16,4.47,11.44-.09,4.29-1.84,8.28-4.93,11.25-3.09,2.97-7.16,4.56-11.44,4.47-4.29-.09-8.28-1.84-11.25-4.93-6.13-6.38-5.92-16.56,.46-22.69l3.14,3.27c-4.58,4.4-4.73,11.7-.33,16.28,2.13,2.22,5,3.48,8.07,3.54,3.07,.06,5.99-1.08,8.21-3.21,2.22-2.13,3.47-5,3.54-8.07,.06-3.07-1.07-5.99-3.21-8.21l3.27-3.14h0Z"/>
    <path class="cls-1" d="M12.82,31.37c-.13-.12-.25-.24-.37-.37-1.91-2.02-2.92-4.66-2.85-7.44,.07-2.78,1.22-5.36,3.24-7.27l3.12,3.29c-1.14,1.08-1.79,2.54-1.83,4.11-.04,1.57,.53,3.06,1.61,4.2,1.08,1.13,2.54,1.79,4.1,1.83,1.57,.04,3.06-.53,4.2-1.61,2.35-2.23,2.45-5.95,.22-8.3l3.29-3.12c3.95,4.17,3.77,10.76-.39,14.71-2.02,1.91-4.66,2.92-7.44,2.85-2.6-.07-5.03-1.08-6.9-2.87h0Z"/>
  </g>
  <path class="cls-3" d="M20.25,16.05c-1.01,0-1.95-.25-2.8-.76-.85-.51-1.53-1.19-2.02-2.04-.49-.85-.74-1.77-.74-2.76,0-.87,.29-1.91,.87-3.13,.46-.98,1.1-2.07,1.91-3.26,.58-.84,1.22-1.69,1.91-2.56l.87-1.04,.87,1.04c.69,.87,1.33,1.72,1.91,2.56,.81,1.19,1.45,2.27,1.91,3.26,.58,1.22,.87,2.26,.87,3.13,0,.98-.25,1.9-.74,2.76-.49,.85-1.17,1.54-2.02,2.04-.85,.51-1.79,.76-2.8,.76Z"/>
</svg>