<svg xmlns="http://www.w3.org/2000/svg" width="256" height="256" viewBox="0 0 256 256"><path d="M128,251.42A123.56,123.56,0,0,1,4.58,128H30.42A97.58,97.58,0,1,0,128,30.42V4.58a123.42,123.42,0,0,1,0,246.84Z" fill="#c2d500"/><path d="M109.31,217.54a91.47,91.47,0,1,1,108.23-70.87l-25.29-5.26a65.63,65.63,0,1,0-77.65,50.83l-5.29,25.3Z" fill="#4c9c2e"/><path d="M128.08,187.3c-1,0-2,0-3-.06a59.33,59.33,0,0,1-56.29-62.18l25.81,1.28a33.46,33.46,0,1,0,35.07-31.76l1.29-25.81a59.3,59.3,0,0,1-2.86,118.53Z" fill="#1a5632"/></svg>