<svg xmlns="http://www.w3.org/2000/svg" width="256" height="256" viewBox="0 0 256 256"><path d="M171.69,123.29v48.46H84.31v-68h29.13V94.16L128,79.6l14.56,14.56v29.13Zm-68-9.79H94.1v9.79h9.55Zm0,19.34H94.1v9.79h9.55Zm0,19.57H94.1V162h9.55Zm29.13-58.25h-9.56v9.56h9.56Zm0,19.34h-9.56v9.79h9.56Zm0,19.34h-9.56v9.79h9.56Zm0,19.57h-9.56V162h9.56Zm29.12-19.57h-9.55v9.79h9.55Zm0,19.57h-9.55V162h9.55Z" fill="#27844f"/><path d="M241.87,120.43a3.26,3.26,0,0,1,1.07,2.33V132L237,137.9v5h-8.36v-5L222.74,132v-9.23a3.26,3.26,0,0,1,1.07-2.33,3.22,3.22,0,0,1,2.32-1.06v-6.71h3.32v6.71h6.78v-6.71h3.31v6.71A3.24,3.24,0,0,1,241.87,120.43Z" fill="#66af50"/><path d="M84.35,227.2a11.67,11.67,0,0,1-1.3,5.44,11.31,11.31,0,0,1-3.63,4.14,12.44,12.44,0,0,1-5.16,2.09V244H70.94v-5.13a12.44,12.44,0,0,1-5.16-2.09,11.13,11.13,0,0,1-3.63-4.14,11.67,11.67,0,0,1-1.3-5.44h3.31a7.84,7.84,0,0,0,.67,3.19,8.63,8.63,0,0,0,1.85,2.72,8.28,8.28,0,0,0,2.72,1.82,8.41,8.41,0,0,0,10.49-3.51A8.09,8.09,0,0,0,81,227.2ZM72.6,212.05a5,5,0,0,1,5.05,5v10.1a4.93,4.93,0,0,1-1.46,3.55,5,5,0,0,1-7.18,0,4.93,4.93,0,0,1-1.46-3.55V217.1a5,5,0,0,1,5-5Z" fill="#66af50"/><path d="M82,20a2.21,2.21,0,0,1,.68,1.62V47.4A2.08,2.08,0,0,1,82,49a2.25,2.25,0,0,1-1.61.63H64.71A2.19,2.19,0,0,1,63.17,49a2.11,2.11,0,0,1-.67-1.58V21.61A2.24,2.24,0,0,1,63.17,20a2.11,2.11,0,0,1,1.54-.67h2.84V16h10.1v3.31h2.84A2.09,2.09,0,0,1,82,20ZM77.65,33.67H74.26v-9.3L67.55,37h3.39V46.3Z" fill="#66af50"/><path d="M190.46,17a11.91,11.91,0,0,1,4.26,4.26,11.39,11.39,0,0,1,1.58,5.92A11.68,11.68,0,0,1,195,32.65a11,11,0,0,1-3.71,4.14v3.87a1.57,1.57,0,0,1-.47,1.18,1.6,1.6,0,0,1-1.18.48H179.5a1.64,1.64,0,0,1-1.66-1.66V36.79a11,11,0,0,1-3.7-4.14,11.91,11.91,0,0,1,.23-11.4A11.91,11.91,0,0,1,178.63,17a11.93,11.93,0,0,1,11.83,0Zm-11,28.72h10.1v1.65A1.62,1.62,0,0,1,187.94,49h-6.78a1.61,1.61,0,0,1-1.66-1.66Z" fill="#66af50"/><path d="M30.83,111.27a9.8,9.8,0,0,1,3.67,3.67,10.08,10.08,0,0,1-8.76,15.18h-5v10.1H14V109.93H25.74A10,10,0,0,1,30.83,111.27Zm-2.37,11.16a3.42,3.42,0,0,0,0-4.81,3.18,3.18,0,0,0-2.33-1H20.69v6.78h5.44A3.17,3.17,0,0,0,28.46,122.43Z" fill="#66af50"/><path d="M174.06,226.09H169V222.7h5.05Zm2.28-10.49-3-3.08,2.36-2.36,3,3Zm0,17.59,2.37,2.36-3,3.08-2.36-2.37Zm16.29-17.55a10.17,10.17,0,0,1,3.67,3.7,10.19,10.19,0,0,1,0,10.1,9.87,9.87,0,0,1-3.67,3.67,10.32,10.32,0,0,1-10.17,0,9.72,9.72,0,0,1-3.67-3.67,10.19,10.19,0,0,1,0-10.1,10,10,0,0,1,3.67-3.7,10.06,10.06,0,0,1,10.17,0Zm-3.43-4.7h-3.31v-5h3.31Zm-3.31,26.9h3.31v5h-3.31Zm12.85-22.24-2.36-2.45,3-3,2.36,2.36Zm0,17.59,3,3.07-2.36,2.37-3-3.08ZM201,222.7h5.05v3.39H201Z" fill="#66af50"/><path d="M76,130.5H74a2.5,2.5,0,0,1,0-5h2a2.5,2.5,0,0,1,0,5Z" fill="#c2d500"/><path d="M61.57,130.5H57.43a2.5,2.5,0,0,1,0-5h4.14a2.5,2.5,0,0,1,0,5Z" fill="#c2d500"/><path d="M45,130.5H43a2.5,2.5,0,0,1,0-5h2a2.5,2.5,0,0,1,0,5Z" fill="#c2d500"/><path d="M104.74,89.72a2.49,2.49,0,0,1-2.17-1.26l-1-1.74a2.5,2.5,0,1,1,4.34-2.47l1,1.73a2.5,2.5,0,0,1-.93,3.41A2.43,2.43,0,0,1,104.74,89.72Z" fill="#c2d500"/><path d="M96.91,76a2.51,2.51,0,0,1-2.18-1.26l-2.28-4a2.5,2.5,0,1,1,4.35-2.47l2.28,4a2.5,2.5,0,0,1-.94,3.41A2.39,2.39,0,0,1,96.91,76Z" fill="#c2d500"/><path d="M87.79,60a2.51,2.51,0,0,1-2.18-1.27l-1-1.73A2.5,2.5,0,0,1,89,54.53l1,1.74A2.51,2.51,0,0,1,87.79,60Z" fill="#c2d500"/><path d="M151.41,91.55a2.51,2.51,0,0,1-2.14-3.79l1-1.71a2.5,2.5,0,0,1,4.29,2.57l-1,1.72A2.5,2.5,0,0,1,151.41,91.55Z" fill="#c2d500"/><path d="M160.14,77a2.42,2.42,0,0,1-1.29-.36,2.5,2.5,0,0,1-.86-3.43L160.56,69a2.5,2.5,0,1,1,4.28,2.57l-2.56,4.27A2.5,2.5,0,0,1,160.14,77Z" fill="#c2d500"/><path d="M170.39,60a2.45,2.45,0,0,1-1.29-.36,2.5,2.5,0,0,1-.85-3.43l1-1.71a2.5,2.5,0,1,1,4.29,2.57l-1,1.72A2.48,2.48,0,0,1,170.39,60Z" fill="#c2d500"/><path d="M180,130.5h-2a2.5,2.5,0,0,1,0-5h2a2.5,2.5,0,0,1,0,5Z" fill="#c2d500"/><path d="M197,130.5h-4.25a2.5,2.5,0,0,1,0-5H197a2.5,2.5,0,0,1,0,5Z" fill="#c2d500"/><path d="M211.73,130.5h-2a2.5,2.5,0,0,1,0-5h2a2.5,2.5,0,1,1,0,5Z" fill="#c2d500"/><path d="M157.41,181.72a2.5,2.5,0,0,1-2.17-1.26l-1-1.73a2.5,2.5,0,1,1,4.34-2.49l1,1.73a2.5,2.5,0,0,1-.93,3.41A2.44,2.44,0,0,1,157.41,181.72Z" fill="#c2d500"/><path d="M164.55,194.15a2.51,2.51,0,0,1-2.17-1.25l-1.78-3.11a2.5,2.5,0,0,1,4.33-2.49l1.79,3.11a2.49,2.49,0,0,1-.93,3.41A2.43,2.43,0,0,1,164.55,194.15Z" fill="#c2d500"/><path d="M170.9,205.22a2.51,2.51,0,0,1-2.17-1.26l-1-1.73a2.5,2.5,0,1,1,4.33-2.49l1,1.73a2.51,2.51,0,0,1-2.17,3.75Z" fill="#c2d500"/><path d="M98.21,181.71A2.5,2.5,0,0,1,96.05,178l1-1.72a2.5,2.5,0,1,1,4.32,2.51l-1,1.73A2.48,2.48,0,0,1,98.21,181.71Z" fill="#c2d500"/><path d="M89.86,196.06a2.45,2.45,0,0,1-1.25-.34,2.49,2.49,0,0,1-.91-3.41l2.09-3.59a2.5,2.5,0,1,1,4.32,2.51L92,194.82A2.48,2.48,0,0,1,89.86,196.06Z" fill="#c2d500"/><path d="M82.59,208.56a2.48,2.48,0,0,1-1.25-.34,2.5,2.5,0,0,1-.91-3.42l1-1.73a2.5,2.5,0,0,1,4.32,2.51l-1,1.73A2.52,2.52,0,0,1,82.59,208.56Z" fill="#c2d500"/></svg>